<svg xmlns="http://www.w3.org/2000/svg" viewBox="0 0 800 480" width="800" height="480" role="img" aria-label="Chopper tuning progress on the KlipperScreen display">
  <rect x="20" y="20" width="760" height="440" rx="18" fill="#0d0d0f" stroke="#333338"/>
  <rect x="40" y="40" width="720" height="400" rx="10" fill="#17171a"/>

  <path d="M40 50 a10 10 0 0 1 10-10 h700 a10 10 0 0 1 10 10 v42 h-720 z" fill="#202024"/>
  <text x="62" y="73" font-family="system-ui, sans-serif" font-size="20" font-weight="500" fill="#e8e8ea">roskomdozor</text>
  <text x="400" y="72" font-family="system-ui, sans-serif" font-size="17" fill="#9a9aa0" text-anchor="middle">21:12</text>
  <circle cx="726" cy="66" r="17" fill="#7f1d1d"/>
  <text x="726" y="73" font-family="system-ui, sans-serif" font-size="19" font-weight="500" fill="#fecaca" text-anchor="middle">!</text>

  <rect x="40" y="92" width="720" height="56" fill="#12293f"/>
  <circle cx="76" cy="120" r="11" fill="none" stroke="#7fb3e3" stroke-width="2"/>
  <path d="M70 128 l-4 7 l10 -4" fill="#12293f" stroke="#7fb3e3" stroke-width="2" stroke-linejoin="round"/>
  <text x="102" y="128" font-family="ui-monospace, SFMono-Regular, Menlo, monospace" font-size="21" fill="#cfe4f7">Chopper cand 128: 864</text>

  <g font-family="system-ui, sans-serif">
    <rect x="60" y="168" width="330" height="70" rx="8" fill="#232329"/>
    <path d="M96 186 c7 7 9 13 5 19 c-3 5 -9 5 -12 1 c-4 -6 -1 -13 7 -20 z" fill="none" stroke="#9a9aa0" stroke-width="2"/>
    <text x="126" y="199" font-size="19" fill="#e8e8ea">24.1°</text>
    <text x="126" y="222" font-size="13" fill="#77777d">Extruder</text>

    <rect x="60" y="252" width="330" height="70" rx="8" fill="#232329"/>
    <rect x="86" y="280" width="24" height="9" rx="2" fill="none" stroke="#9a9aa0" stroke-width="2"/>
    <line x1="90" y1="293" x2="90" y2="298" stroke="#9a9aa0" stroke-width="2"/>
    <line x1="106" y1="293" x2="106" y2="298" stroke="#9a9aa0" stroke-width="2"/>
    <text x="126" y="283" font-size="19" fill="#e8e8ea">23.4°</text>
    <text x="126" y="306" font-size="13" fill="#77777d">Heater bed</text>

    <rect x="60" y="336" width="330" height="70" rx="8" fill="#232329"/>
    <circle cx="98" cy="371" r="12" fill="none" stroke="#9a9aa0" stroke-width="2"/>
    <line x1="98" y1="371" x2="98" y2="359" stroke="#9a9aa0" stroke-width="2"/>
    <line x1="98" y1="371" x2="108" y2="377" stroke="#9a9aa0" stroke-width="2"/>
    <line x1="98" y1="371" x2="88" y2="377" stroke="#9a9aa0" stroke-width="2"/>
    <text x="126" y="367" font-size="19" fill="#e8e8ea">0%</text>
    <text x="126" y="390" font-size="13" fill="#77777d">Fan</text>

    <rect x="410" y="168" width="160" height="112" rx="8" fill="#232329"/>
    <path d="M478 214 l12 -11 l12 11 m-20 -3 v16 h16 v-16" fill="none" stroke="#b9b9c0" stroke-width="2" stroke-linejoin="round"/>
    <text x="490" y="256" font-size="14" fill="#b9b9c0" text-anchor="middle">Homing</text>

    <rect x="600" y="168" width="160" height="112" rx="8" fill="#232329"/>
    <line x1="680" y1="203" x2="680" y2="222" stroke="#b9b9c0" stroke-width="2"/>
    <circle cx="680" cy="227" r="6" fill="none" stroke="#b9b9c0" stroke-width="2"/>
    <text x="680" y="256" font-size="14" fill="#b9b9c0" text-anchor="middle">Temperature</text>

    <rect x="410" y="296" width="160" height="112" rx="8" fill="#232329"/>
    <line x1="474" y1="334" x2="506" y2="334" stroke="#b9b9c0" stroke-width="2"/>
    <circle cx="482" cy="334" r="3.5" fill="#232329" stroke="#b9b9c0" stroke-width="2"/>
    <line x1="474" y1="346" x2="506" y2="346" stroke="#b9b9c0" stroke-width="2"/>
    <circle cx="498" cy="346" r="3.5" fill="#232329" stroke="#b9b9c0" stroke-width="2"/>
    <text x="490" y="384" font-size="14" fill="#b9b9c0" text-anchor="middle">Actions</text>

    <rect x="600" y="296" width="160" height="112" rx="8" fill="#232329"/>
    <circle cx="680" cy="340" r="9" fill="none" stroke="#b9b9c0" stroke-width="2"/>
    <g stroke="#b9b9c0" stroke-width="2">
      <line x1="680" y1="326" x2="680" y2="331"/><line x1="680" y1="349" x2="680" y2="354"/>
      <line x1="666" y1="340" x2="671" y2="340"/><line x1="689" y1="340" x2="694" y2="340"/>
      <line x1="670" y1="330" x2="674" y2="334"/><line x1="686" y1="346" x2="690" y2="350"/>
      <line x1="690" y1="330" x2="686" y2="334"/><line x1="674" y1="346" x2="670" y2="350"/>
    </g>
    <text x="680" y="384" font-size="14" fill="#b9b9c0" text-anchor="middle">Configuration</text>
  </g>
</svg>
